<?xml version="1.0" encoding="UTF-8"?>
<svg id="Layer_1" data-name="Layer 1" xmlns="http://www.w3.org/2000/svg" viewBox="0 0 1366 338">
  <defs>
    <style>
      .cls-1 {
        fill: #FFFFFF;
        stroke-width: 0px;
      }
    </style>
  </defs>
  <path class="cls-1" d="M948.7,58.1c-32.02-46.25-88.21-32.87-105.06-22.76-34.97,20.98-45.35,59.13-48.39,82.02-8.17-6.62-35.35-25.85-65.95-17.12-18.51,5.29-33.49,17.56-41.1,33.68-7.72,16.35-7.51,35.63.61,54.29,9.1,20.92,19.07,30.36,27.87,38.68,2.73,2.58,5.3,5.01,7.67,7.63,6.6,7.3,10.5,16.86,11.01,26.91l1.27,25.43c0,5.1,2.64,9.79,6.9,12.24,1.89,1.09,3.94,1.63,6.02,1.63,2.23,0,4.49-.62,6.63-1.86,3.83-2.23,7.07-4.46,10.2-6.62,8.89-6.13,17.29-11.92,37.36-15.69,26.54-4.98,52.3-1.73,52.56-1.7.73.1,1.46-.3,1.77-.98s.15-1.48-.4-1.99c-.4-.36-9.9-8.88-26.77-14.07-15.11-4.64-39.12-7.31-68.59,5.82v-10.96c7.07-3.13,51.55-21.52,102.51-13.8.6.1,1.2-.14,1.58-.61.38-.47.49-1.11.28-1.67-.12-.32-11.59-32.36,1.7-65.57.23-.59.13-1.26-.28-1.74-.41-.49-1.05-.71-1.67-.57-1.01.22-24.67,5.76-33.58,47.93-4.11.04-16.18.26-23.61,1.55-4.24-5.13-23.12-27.25-33.23-27.25-.52,0-1.01.24-1.34.64-.32.41-.45.94-.34,1.44l6.51,29.29c-4.2,1.32-15.98,5.2-23.37,9.29-3.33-3.5-15-15.78-24.74-26.41-10.37-11.31-14.64-29.7-10.4-44.73,3.66-12.96,13.16-22.24,26.73-26.12,10.76-3.07,21.29-1.58,31.3,4.43,17.2,10.33,29.8,32.52,33.35,49.1.01.06.03.12.05.18l3.43,10.28c.26.79,1.04,1.27,1.86,1.15.82-.12,1.44-.8,1.47-1.63.05-1.24,5.58-124.14,61.74-126.82,13.13-.63,23.3,2.59,30.22,9.55,9.95,10,10.71,24.9,10.29,32.89-.74,13.86-5.89,27.38-14.91,39.09-10.23,13.3-27.39,39.53-27.39,65.76,0,38.41,31.6,51.14,31.92,51.27.62.24,1.33.1,1.81-.36.48-.46.65-1.16.43-1.79-.13-.39-13.28-39.02,1.61-67.15,4.12-7.78,9.15-15.8,14.48-24.29,22.2-35.37,47.36-75.46,17.96-117.94Z"/>
  <path class="cls-1" d="M148.1,260.31c-21.02,0-64.84-6.41-83.81-39.73-6.66-11.53-.77-32.29,18.97-32.29,8.2,0,16.66,4.61,20.5,14.61,7.43,19.48,18.97,41.01,49.98,41.01,10.77,0,23.58-6.66,23.58-19.74,0-41.78-108.67-48.19-108.67-108.93,0-41.52,46.39-50.49,73.05-50.49s55.11,12.05,66.64,27.68c2.31,3.08,3.33,6.41,3.33,10.25,0,9.48-7.69,17.17-17.17,17.17-6.15,0-11.28-2.82-14.86-8.71-8.97-14.35-17.17-29.99-39.73-29.99-11.53,0-24.35,6.41-24.35,20.5,0,37.93,111.24,47.93,111.24,103.29,0,36.39-34.86,55.36-78.69,55.36Z"/>
  <path class="cls-1" d="M520.01,241.35c0,7.18-13.07,14.87-28.19,14.87s-27.42-8.97-27.42-24.86v-57.93c-3.59,4.1-8.97,8.2-15.89,13.33-12.82,8.97-17.17,21.27-17.17,32.3-.26,14.87,7.69,27.68,18.97,19.74,2.56-1.79,5.89-.26,5.89,2.82,0,1.28-.26,2.56-1.03,3.59-5.89,8.2-16.15,15.12-33.06,15.12-20.76,0-34.86-14.1-34.86-34.86,0-24.35,25.89-37.42,44.34-45.88,18.2-8.2,28.96-17.17,28.96-29.73,0-7.43-6.15-13.59-16.15-13.59-13.84,0-20.76,8.71-20.76,20.5,0,9.74-6.92,12.3-13.33,12.3s-12.82-4.36-12.82-12.81c0-14.87,19.22-32.3,46.9-32.3,38.7,0,64.08,23.32,64.08,57.16v48.19c0,4.61,1.03,7.69,5.38,6.92,3.59-.77,6.15,1.28,6.15,5.12Z"/>
  <path class="cls-1" d="M589.47,250.06c0,3.33-2.82,6.15-6.92,6.15h-44.34c-3.84,0-6.66-2.82-6.66-6.15,0-6.92,6.92-4.36,6.92-26.91v-47.16c0-22.56-6.92-19.99-6.92-26.91,0-3.59,2.82-6.15,6.66-6.15,17.43,0,23.07-14.86,36.4-14.86,4.36,0,7.95,3.59,7.95,7.95v6.66c9.48-11.79,22.3-18.71,35.11-18.71,18.2,0,34.35,11.79,34.35,33.06,0,16.92-10.51,25.38-21.79,25.38s-20.76-9.23-20.76-20.5c0-12.05,5.38-19.22-2.05-19.48-6.92-.26-24.86,12.3-24.86,25.63v55.11c0,22.55,6.92,19.99,6.92,26.91Z"/>
  <path class="cls-1" d="M1089.14,241.35c0,7.18-13.07,14.87-28.19,14.87s-27.42-8.97-27.42-24.86v-57.93c-3.59,4.1-8.97,8.2-15.89,13.33-12.82,8.97-17.17,21.27-17.17,32.3-.26,14.87,7.69,27.68,18.97,19.74,2.56-1.79,5.89-.26,5.89,2.82,0,1.28-.26,2.56-1.03,3.59-5.89,8.2-16.15,15.12-33.06,15.12-20.76,0-34.86-14.1-34.86-34.86,0-24.35,25.89-37.42,44.34-45.88,18.2-8.2,28.96-17.17,28.96-29.73,0-7.43-6.15-13.59-16.15-13.59-13.84,0-20.76,8.71-20.76,20.5,0,9.74-6.92,12.3-13.33,12.3s-12.82-4.36-12.82-12.81c0-14.87,19.22-32.3,46.9-32.3,38.7,0,64.08,23.32,64.08,57.16v48.19c0,4.61,1.03,7.69,5.38,6.92,3.59-.77,6.15,1.28,6.15,5.12Z"/>
  <path class="cls-1" d="M1317,250.06c0,3.33-2.82,6.15-6.66,6.15h-44.34c-4.1,0-6.92-2.82-6.92-6.15,0-6.92,6.92-4.36,6.92-26.91v-108.42c0-22.81-6.92-20.25-6.92-27.17,0-3.59,2.82-6.15,6.92-6.15,17.17,0,22.81-14.86,36.14-14.86,4.36,0,7.95,3.59,7.95,7.95v148.66c0,22.55,6.92,19.99,6.92,26.91Z"/>
  <path class="cls-1" d="M313.42,123.96c-10.25,0-20.5,5.38-25.37,12.56v-.77c0-4.28-3.39-7.88-7.66-7.94-13.53-.21-19.13,14.86-36.42,14.86-4.1,0-6.92,2.56-6.92,6.15,0,6.92,6.92,4.36,6.92,27.17v110.98c0,22.56-6.92,19.99-6.92,26.91,0,3.33,2.82,6.15,6.92,6.15h44.34c3.85,0,6.66-2.82,6.66-6.15,0-6.92-6.92-4.36-6.92-26.91v-129.43c0-12.3,10.77-21.27,19.22-21.27,17.43,0,26.66,23.84,26.66,56.13s-7.69,55.62-26.66,55.62c-.38,0-.77-.01-1.15-.04-3.41-.23-6.26,2.57-6.26,5.98h0c0,2.94,2.13,5.5,5.04,5.93,1.9.28,3.82.44,5.7.44,37.42,0,68.95-26.4,68.95-67.92s-32.81-68.43-66.13-68.43Z"/>
  <g>
    <path class="cls-1" d="M1151.68,175.55v-101.05c0-4.36-3.59-7.95-7.95-7.95-13.33,0-18.97,14.86-36.4,14.86-3.84,0-6.66,2.56-6.66,6.15,0,6.92,6.92,4.36,6.92,26.91v108.67c0,22.55-6.92,19.99-6.92,26.91,0,3.33,2.82,6.15,6.66,6.15h44.34c4.1,0,6.92-2.82,6.92-6.15,0-6.92-6.92-4.36-6.92-26.91v-47.6Z"/>
    <path class="cls-1" d="M1234.21,223.15v-46.9c0-37.42-18.45-52.29-40.75-52.29-8.78,0-17.74,2.6-25.86,7.19-2.94,1.66-4.77,4.76-4.77,8.13v.1c0,5.21,4.31,9.21,9.52,9.19.03,0,.07,0,.1,0,8.97,0,17.68,5.89,17.68,19.48v55.11c0,22.55-6.92,19.99-6.92,26.91,0,3.33,2.82,6.15,6.92,6.15h44.34c3.84,0,6.66-2.82,6.66-6.15,0-6.92-6.92-4.36-6.92-26.91Z"/>
  </g>
</svg>